<?xml version="1.0" encoding="UTF-8" standalone="no"?>
<!DOCTYPE svg PUBLIC "-//W3C//DTD SVG 1.1//EN" "http://www.w3.org/Graphics/SVG/1.1/DTD/svg11.dtd">
<svg width="100%" height="100%" viewBox="0 0 1024 1024" version="1.1" xmlns="http://www.w3.org/2000/svg" xmlns:xlink="http://www.w3.org/1999/xlink" xml:space="preserve" xmlns:serif="http://www.serif.com/" style="fill-rule:evenodd;clip-rule:evenodd;stroke-linejoin:round;stroke-miterlimit:2;">
    <g id="レイヤー1" transform="matrix(1,0,0,1,0,-18)">
        <g transform="matrix(0.308036,0,0,0.308036,138.394898,748.740816)">
            <g transform="matrix(927.536232,0,0,927.536232,100.28323,679.334161)">
                <path d="M0.064,-0.042L0.252,-0.042L0.252,-0.295L0.466,-0.295L0.466,-0.427L0.252,-0.427L0.252,-0.579L0.526,-0.579L0.526,-0.714L0.064,-0.714L0.064,-0.042Z" style="fill:rgb(255,0,0);fill-rule:nonzero;"/>
            </g>
            <g transform="matrix(927.536232,0,0,927.536232,621.558592,679.334161)">
                <path d="M0.25,-0.4L0.25,-0.586L0.318,-0.586C0.387,-0.586 0.414,-0.558 0.414,-0.495C0.414,-0.432 0.388,-0.4 0.321,-0.4L0.25,-0.4ZM0.064,-0.042L0.252,-0.042L0.252,-0.287L0.322,-0.287L0.444,-0.042L0.64,-0.042L0.49,-0.331L0.49,-0.335C0.56,-0.365 0.601,-0.412 0.601,-0.504C0.601,-0.649 0.516,-0.714 0.346,-0.714L0.064,-0.714L0.064,-0.042Z" style="fill:rgb(255,0,0);fill-rule:nonzero;"/>
            </g>
            <g transform="matrix(927.536232,0,0,927.536232,1229.094824,679.334161)">
                <path d="M0.064,-0.042L0.537,-0.042L0.537,-0.177L0.25,-0.177L0.25,-0.319L0.467,-0.319L0.467,-0.451L0.25,-0.451L0.25,-0.579L0.528,-0.579L0.528,-0.714L0.064,-0.714L0.064,-0.042Z" style="fill:rgb(255,0,0);fill-rule:nonzero;"/>
            </g>
            <g transform="matrix(927.536232,0,0,927.536232,1767.993375,679.334161)">
                <path d="M0.064,-0.042L0.537,-0.042L0.537,-0.177L0.25,-0.177L0.25,-0.319L0.467,-0.319L0.467,-0.451L0.25,-0.451L0.25,-0.579L0.528,-0.579L0.528,-0.714L0.064,-0.714L0.064,-0.042Z" style="fill:rgb(255,0,0);fill-rule:nonzero;"/>
            </g>
        </g>
    </g>
</svg>
