<?xml version="1.0" encoding="UTF-8" standalone="no"?>
<!DOCTYPE svg PUBLIC "-//W3C//DTD SVG 1.1//EN" "http://www.w3.org/Graphics/SVG/1.1/DTD/svg11.dtd">
<svg width="100%" height="100%" viewBox="0 0 921 95" version="1.1" xmlns="http://www.w3.org/2000/svg" xmlns:xlink="http://www.w3.org/1999/xlink" xml:space="preserve" xmlns:serif="http://www.serif.com/" style="fill-rule:evenodd;clip-rule:evenodd;stroke-linejoin:round;stroke-miterlimit:2;">
    <g transform="matrix(1,0,0,1,-116.041,-714.282)">
        <g transform="matrix(1,0,0,1,-127.541,563.582)">
            <g transform="matrix(96,0,0,96,238,225)">
                <path d="M0.672,-0.727L0.672,-0L0.539,-0L0.222,-0.458L0.217,-0.458L0.217,-0L0.063,-0L0.063,-0.727L0.198,-0.727L0.512,-0.27L0.518,-0.27L0.518,-0.727L0.672,-0.727Z" style="fill:rgb(129,222,253);fill-rule:nonzero;stroke:rgb(129,222,253);stroke-width:0.01px;"/>
            </g>
            <g transform="matrix(96,0,0,96,308.555,225)">
                <path d="M0.216,0.01C0.181,0.01 0.15,0.004 0.123,-0.008C0.096,-0.02 0.074,-0.038 0.059,-0.062C0.043,-0.086 0.035,-0.116 0.035,-0.152C0.035,-0.183 0.04,-0.208 0.051,-0.229C0.063,-0.249 0.078,-0.266 0.097,-0.278C0.116,-0.291 0.138,-0.3 0.162,-0.307C0.187,-0.313 0.213,-0.318 0.24,-0.32C0.271,-0.324 0.297,-0.327 0.316,-0.33C0.336,-0.333 0.35,-0.337 0.359,-0.343C0.367,-0.349 0.372,-0.358 0.372,-0.369L0.372,-0.371C0.372,-0.394 0.365,-0.411 0.351,-0.424C0.336,-0.436 0.317,-0.442 0.291,-0.442C0.264,-0.442 0.242,-0.436 0.226,-0.424C0.21,-0.412 0.199,-0.397 0.194,-0.379L0.054,-0.391C0.061,-0.424 0.075,-0.452 0.096,-0.477C0.117,-0.501 0.144,-0.52 0.177,-0.533C0.21,-0.546 0.248,-0.553 0.291,-0.553C0.322,-0.553 0.351,-0.549 0.379,-0.542C0.407,-0.535 0.431,-0.524 0.453,-0.509C0.474,-0.494 0.492,-0.475 0.504,-0.452C0.517,-0.428 0.523,-0.4 0.523,-0.368L0.523,-0L0.38,-0L0.38,-0.076L0.375,-0.076C0.366,-0.059 0.355,-0.044 0.34,-0.031C0.326,-0.018 0.308,-0.008 0.287,-0.001C0.267,0.007 0.243,0.01 0.216,0.01ZM0.259,-0.094C0.282,-0.094 0.301,-0.098 0.318,-0.107C0.335,-0.116 0.349,-0.128 0.358,-0.144C0.368,-0.159 0.373,-0.176 0.373,-0.195L0.373,-0.253C0.368,-0.25 0.362,-0.247 0.354,-0.245C0.345,-0.242 0.336,-0.24 0.326,-0.238C0.316,-0.236 0.306,-0.234 0.296,-0.233C0.285,-0.231 0.276,-0.23 0.268,-0.228C0.25,-0.226 0.235,-0.222 0.221,-0.216C0.208,-0.21 0.198,-0.203 0.19,-0.193C0.183,-0.183 0.179,-0.172 0.179,-0.157C0.179,-0.137 0.187,-0.121 0.202,-0.11C0.217,-0.099 0.236,-0.094 0.259,-0.094Z" style="fill:rgb(129,222,253);fill-rule:nonzero;stroke:rgb(129,222,253);stroke-width:0.01px;"/>
            </g>
            <g transform="matrix(96,0,0,96,364.245,225)">
                <path d="M0.351,-0.545L0.351,-0.432L0.022,-0.432L0.022,-0.545L0.351,-0.545ZM0.097,-0.676L0.248,-0.676L0.248,-0.168C0.248,-0.154 0.25,-0.143 0.254,-0.135C0.259,-0.127 0.265,-0.122 0.272,-0.119C0.28,-0.116 0.289,-0.114 0.299,-0.114C0.306,-0.114 0.313,-0.115 0.32,-0.116C0.328,-0.118 0.333,-0.119 0.337,-0.119L0.361,-0.007C0.353,-0.004 0.342,-0.001 0.329,0.002C0.315,0.005 0.298,0.007 0.278,0.008C0.242,0.009 0.21,0.004 0.183,-0.007C0.155,-0.018 0.134,-0.035 0.119,-0.059C0.104,-0.082 0.096,-0.112 0.097,-0.148L0.097,-0.676Z" style="fill:rgb(129,222,253);fill-rule:nonzero;stroke:rgb(129,222,253);stroke-width:0.01px;"/>
            </g>
            <g transform="matrix(96,0,0,96,401.527,225)">
                <path d="M0.061,-0L0.061,-0.545L0.212,-0.545L0.212,-0L0.061,-0ZM0.136,-0.616C0.114,-0.616 0.095,-0.623 0.079,-0.638C0.063,-0.653 0.055,-0.671 0.055,-0.692C0.055,-0.713 0.063,-0.731 0.079,-0.746C0.095,-0.761 0.114,-0.769 0.136,-0.769C0.159,-0.769 0.178,-0.761 0.194,-0.746C0.21,-0.731 0.218,-0.713 0.218,-0.692C0.218,-0.671 0.21,-0.653 0.194,-0.638C0.178,-0.623 0.159,-0.616 0.136,-0.616Z" style="fill:rgb(129,222,253);fill-rule:nonzero;stroke:rgb(129,222,253);stroke-width:0.01px;"/>
            </g>
            <g transform="matrix(96,0,0,96,427.654,225)">
                <path d="M0.569,-0.545L0.378,-0L0.208,-0L0.017,-0.545L0.177,-0.545L0.29,-0.155L0.296,-0.155L0.409,-0.545L0.569,-0.545Z" style="fill:rgb(129,222,253);fill-rule:nonzero;stroke:rgb(129,222,253);stroke-width:0.01px;"/>
            </g>
            <g transform="matrix(96,0,0,96,481.981,225)">
                <path d="M0.309,0.011C0.253,0.011 0.205,-0.001 0.164,-0.024C0.124,-0.046 0.093,-0.079 0.071,-0.121C0.049,-0.163 0.038,-0.213 0.038,-0.27C0.038,-0.326 0.049,-0.376 0.071,-0.418C0.093,-0.46 0.124,-0.493 0.163,-0.517C0.203,-0.541 0.249,-0.553 0.303,-0.553C0.339,-0.553 0.373,-0.547 0.404,-0.535C0.435,-0.524 0.462,-0.507 0.485,-0.484C0.509,-0.461 0.527,-0.432 0.54,-0.397C0.553,-0.362 0.559,-0.322 0.559,-0.276L0.559,-0.234L0.099,-0.234L0.099,-0.328L0.417,-0.328C0.417,-0.35 0.412,-0.369 0.403,-0.386C0.393,-0.402 0.38,-0.416 0.363,-0.425C0.347,-0.435 0.327,-0.44 0.305,-0.44C0.283,-0.44 0.262,-0.434 0.245,-0.424C0.227,-0.413 0.213,-0.399 0.203,-0.381C0.193,-0.364 0.188,-0.344 0.188,-0.323L0.188,-0.234C0.188,-0.207 0.193,-0.183 0.203,-0.164C0.213,-0.144 0.227,-0.129 0.246,-0.118C0.264,-0.108 0.286,-0.102 0.311,-0.102C0.328,-0.102 0.344,-0.105 0.358,-0.109C0.371,-0.114 0.383,-0.121 0.393,-0.131C0.404,-0.14 0.411,-0.152 0.416,-0.165L0.556,-0.156C0.549,-0.123 0.534,-0.093 0.513,-0.068C0.491,-0.043 0.463,-0.024 0.428,-0.01C0.394,0.004 0.354,0.011 0.309,0.011Z" style="fill:rgb(129,222,253);fill-rule:nonzero;stroke:rgb(129,222,253);stroke-width:0.01px;"/>
            </g>
            <g transform="matrix(96,0,0,96,539.363,225)">
                <path d="M0.189,-0L0.024,-0L0.275,-0.727L0.473,-0.727L0.724,-0L0.559,-0L0.377,-0.561L0.371,-0.561L0.189,-0ZM0.178,-0.286L0.568,-0.286L0.568,-0.166L0.178,-0.166L0.178,-0.286Z" style="fill:white;fill-rule:nonzero;stroke:white;stroke-width:0.01px;"/>
            </g>
            <g transform="matrix(96,0,0,96,611.145,225)">
                <path d="M0.061,0.205L0.061,-0.545L0.21,-0.545L0.21,-0.454L0.216,-0.454C0.223,-0.469 0.233,-0.484 0.245,-0.499C0.258,-0.514 0.274,-0.527 0.295,-0.537C0.315,-0.547 0.341,-0.553 0.371,-0.553C0.411,-0.553 0.448,-0.542 0.482,-0.522C0.515,-0.501 0.542,-0.47 0.562,-0.428C0.582,-0.387 0.592,-0.335 0.592,-0.272C0.592,-0.211 0.583,-0.16 0.563,-0.118C0.543,-0.076 0.517,-0.045 0.483,-0.023C0.45,-0.002 0.412,0.009 0.371,0.009C0.342,0.009 0.317,0.004 0.296,-0.006C0.276,-0.016 0.259,-0.028 0.246,-0.043C0.233,-0.057 0.223,-0.072 0.216,-0.087L0.212,-0.087L0.212,0.205L0.061,0.205ZM0.209,-0.273C0.209,-0.24 0.213,-0.212 0.222,-0.188C0.231,-0.164 0.244,-0.145 0.261,-0.132C0.278,-0.118 0.299,-0.112 0.323,-0.112C0.348,-0.112 0.369,-0.118 0.386,-0.132C0.403,-0.146 0.416,-0.165 0.425,-0.189C0.433,-0.213 0.438,-0.241 0.438,-0.273C0.438,-0.304 0.433,-0.332 0.425,-0.356C0.416,-0.38 0.403,-0.399 0.386,-0.412C0.369,-0.425 0.348,-0.432 0.323,-0.432C0.299,-0.432 0.278,-0.426 0.261,-0.413C0.244,-0.399 0.231,-0.381 0.222,-0.357C0.213,-0.333 0.209,-0.305 0.209,-0.273Z" style="fill:white;fill-rule:nonzero;stroke:white;stroke-width:0.01px;"/>
            </g>
            <g transform="matrix(96,0,0,96,671.854,225)">
                <path d="M0.061,0.205L0.061,-0.545L0.21,-0.545L0.21,-0.454L0.216,-0.454C0.223,-0.469 0.233,-0.484 0.245,-0.499C0.258,-0.514 0.274,-0.527 0.295,-0.537C0.315,-0.547 0.341,-0.553 0.371,-0.553C0.411,-0.553 0.448,-0.542 0.482,-0.522C0.515,-0.501 0.542,-0.47 0.562,-0.428C0.582,-0.387 0.592,-0.335 0.592,-0.272C0.592,-0.211 0.583,-0.16 0.563,-0.118C0.543,-0.076 0.517,-0.045 0.483,-0.023C0.45,-0.002 0.412,0.009 0.371,0.009C0.342,0.009 0.317,0.004 0.296,-0.006C0.276,-0.016 0.259,-0.028 0.246,-0.043C0.233,-0.057 0.223,-0.072 0.216,-0.087L0.212,-0.087L0.212,0.205L0.061,0.205ZM0.209,-0.273C0.209,-0.24 0.213,-0.212 0.222,-0.188C0.231,-0.164 0.244,-0.145 0.261,-0.132C0.278,-0.118 0.299,-0.112 0.323,-0.112C0.348,-0.112 0.369,-0.118 0.386,-0.132C0.403,-0.146 0.416,-0.165 0.425,-0.189C0.433,-0.213 0.438,-0.241 0.438,-0.273C0.438,-0.304 0.433,-0.332 0.425,-0.356C0.416,-0.38 0.403,-0.399 0.386,-0.412C0.369,-0.425 0.348,-0.432 0.323,-0.432C0.299,-0.432 0.278,-0.426 0.261,-0.413C0.244,-0.399 0.231,-0.381 0.222,-0.357C0.213,-0.333 0.209,-0.305 0.209,-0.273Z" style="fill:white;fill-rule:nonzero;stroke:white;stroke-width:0.01px;"/>
            </g>
            <g transform="matrix(96,0,0,96,728.745,225)">
                <path d="M0.036,-0.601L0.036,-0.727L0.633,-0.727L0.633,-0.601L0.41,-0.601L0.41,-0L0.258,-0L0.258,-0.601L0.036,-0.601Z" style="fill:white;fill-rule:nonzero;stroke:white;stroke-width:0.01px;"/>
            </g>
            <g transform="matrix(96,0,0,96,785.281,225)">
                <path d="M0.309,0.011C0.253,0.011 0.205,-0.001 0.164,-0.024C0.124,-0.046 0.093,-0.079 0.071,-0.121C0.049,-0.163 0.038,-0.213 0.038,-0.27C0.038,-0.326 0.049,-0.376 0.071,-0.418C0.093,-0.46 0.124,-0.493 0.163,-0.517C0.203,-0.541 0.249,-0.553 0.303,-0.553C0.339,-0.553 0.373,-0.547 0.404,-0.535C0.435,-0.524 0.462,-0.507 0.485,-0.484C0.509,-0.461 0.527,-0.432 0.54,-0.397C0.553,-0.362 0.559,-0.322 0.559,-0.276L0.559,-0.234L0.099,-0.234L0.099,-0.328L0.417,-0.328C0.417,-0.35 0.412,-0.369 0.403,-0.386C0.393,-0.402 0.38,-0.416 0.363,-0.425C0.347,-0.435 0.327,-0.44 0.305,-0.44C0.283,-0.44 0.262,-0.434 0.245,-0.424C0.227,-0.413 0.213,-0.399 0.203,-0.381C0.193,-0.364 0.188,-0.344 0.188,-0.323L0.188,-0.234C0.188,-0.207 0.193,-0.183 0.203,-0.164C0.213,-0.144 0.227,-0.129 0.246,-0.118C0.264,-0.108 0.286,-0.102 0.311,-0.102C0.328,-0.102 0.344,-0.105 0.358,-0.109C0.371,-0.114 0.383,-0.121 0.393,-0.131C0.404,-0.14 0.411,-0.152 0.416,-0.165L0.556,-0.156C0.549,-0.123 0.534,-0.093 0.513,-0.068C0.491,-0.043 0.463,-0.024 0.428,-0.01C0.394,0.004 0.354,0.011 0.309,0.011Z" style="fill:white;fill-rule:nonzero;stroke:white;stroke-width:0.01px;"/>
            </g>
            <g transform="matrix(96,0,0,96,842.663,225)">
                <path d="M0.061,-0L0.061,-0.545L0.205,-0.545L0.205,-0.449L0.211,-0.449C0.222,-0.481 0.241,-0.507 0.268,-0.525C0.294,-0.543 0.326,-0.553 0.363,-0.553C0.4,-0.553 0.432,-0.543 0.459,-0.525C0.485,-0.506 0.502,-0.481 0.511,-0.449L0.517,-0.449C0.528,-0.48 0.548,-0.506 0.577,-0.524C0.606,-0.543 0.641,-0.553 0.681,-0.553C0.732,-0.553 0.773,-0.536 0.805,-0.504C0.837,-0.472 0.853,-0.426 0.853,-0.367L0.853,-0L0.702,-0L0.702,-0.337C0.702,-0.367 0.694,-0.39 0.678,-0.405C0.662,-0.42 0.642,-0.428 0.618,-0.428C0.59,-0.428 0.569,-0.419 0.553,-0.402C0.538,-0.384 0.53,-0.361 0.53,-0.333L0.53,-0L0.384,-0L0.384,-0.34C0.384,-0.367 0.376,-0.388 0.361,-0.404C0.345,-0.42 0.325,-0.428 0.3,-0.428C0.283,-0.428 0.268,-0.424 0.255,-0.415C0.242,-0.407 0.231,-0.395 0.223,-0.38C0.216,-0.365 0.212,-0.347 0.212,-0.327L0.212,-0L0.061,-0Z" style="fill:white;fill-rule:nonzero;stroke:white;stroke-width:0.01px;"/>
            </g>
            <g transform="matrix(96,0,0,96,930.208,225)">
                <path d="M0.061,0.205L0.061,-0.545L0.21,-0.545L0.21,-0.454L0.216,-0.454C0.223,-0.469 0.233,-0.484 0.245,-0.499C0.258,-0.514 0.274,-0.527 0.295,-0.537C0.315,-0.547 0.341,-0.553 0.371,-0.553C0.411,-0.553 0.448,-0.542 0.482,-0.522C0.515,-0.501 0.542,-0.47 0.562,-0.428C0.582,-0.387 0.592,-0.335 0.592,-0.272C0.592,-0.211 0.583,-0.16 0.563,-0.118C0.543,-0.076 0.517,-0.045 0.483,-0.023C0.45,-0.002 0.412,0.009 0.371,0.009C0.342,0.009 0.317,0.004 0.296,-0.006C0.276,-0.016 0.259,-0.028 0.246,-0.043C0.233,-0.057 0.223,-0.072 0.216,-0.087L0.212,-0.087L0.212,0.205L0.061,0.205ZM0.209,-0.273C0.209,-0.24 0.213,-0.212 0.222,-0.188C0.231,-0.164 0.244,-0.145 0.261,-0.132C0.278,-0.118 0.299,-0.112 0.323,-0.112C0.348,-0.112 0.369,-0.118 0.386,-0.132C0.403,-0.146 0.416,-0.165 0.425,-0.189C0.433,-0.213 0.438,-0.241 0.438,-0.273C0.438,-0.304 0.433,-0.332 0.425,-0.356C0.416,-0.38 0.403,-0.399 0.386,-0.412C0.369,-0.425 0.348,-0.432 0.323,-0.432C0.299,-0.432 0.278,-0.426 0.261,-0.413C0.244,-0.399 0.231,-0.381 0.222,-0.357C0.213,-0.333 0.209,-0.305 0.209,-0.273Z" style="fill:white;fill-rule:nonzero;stroke:white;stroke-width:0.01px;"/>
            </g>
            <g transform="matrix(96,0,0,96,990.917,225)">
                <rect x="0.061" y="-0.727" width="0.151" height="0.727" style="fill:white;fill-rule:nonzero;stroke:white;stroke-width:0.01px;"/>
            </g>
            <g transform="matrix(96,0,0,96,1017.04,225)">
                <path d="M0.216,0.01C0.181,0.01 0.15,0.004 0.123,-0.008C0.096,-0.02 0.074,-0.038 0.059,-0.062C0.043,-0.086 0.035,-0.116 0.035,-0.152C0.035,-0.183 0.04,-0.208 0.051,-0.229C0.063,-0.249 0.078,-0.266 0.097,-0.278C0.116,-0.291 0.138,-0.3 0.162,-0.307C0.187,-0.313 0.213,-0.318 0.24,-0.32C0.271,-0.324 0.297,-0.327 0.316,-0.33C0.336,-0.333 0.35,-0.337 0.359,-0.343C0.367,-0.349 0.372,-0.358 0.372,-0.369L0.372,-0.371C0.372,-0.394 0.365,-0.411 0.351,-0.424C0.336,-0.436 0.317,-0.442 0.291,-0.442C0.264,-0.442 0.242,-0.436 0.226,-0.424C0.21,-0.412 0.199,-0.397 0.194,-0.379L0.054,-0.391C0.061,-0.424 0.075,-0.452 0.096,-0.477C0.117,-0.501 0.144,-0.52 0.177,-0.533C0.21,-0.546 0.248,-0.553 0.291,-0.553C0.322,-0.553 0.351,-0.549 0.379,-0.542C0.407,-0.535 0.431,-0.524 0.453,-0.509C0.474,-0.494 0.492,-0.475 0.504,-0.452C0.517,-0.428 0.523,-0.4 0.523,-0.368L0.523,-0L0.38,-0L0.38,-0.076L0.375,-0.076C0.366,-0.059 0.355,-0.044 0.34,-0.031C0.326,-0.018 0.308,-0.008 0.287,-0.001C0.267,0.007 0.243,0.01 0.216,0.01ZM0.259,-0.094C0.282,-0.094 0.301,-0.098 0.318,-0.107C0.335,-0.116 0.349,-0.128 0.358,-0.144C0.368,-0.159 0.373,-0.176 0.373,-0.195L0.373,-0.253C0.368,-0.25 0.362,-0.247 0.354,-0.245C0.345,-0.242 0.336,-0.24 0.326,-0.238C0.316,-0.236 0.306,-0.234 0.296,-0.233C0.285,-0.231 0.276,-0.23 0.268,-0.228C0.25,-0.226 0.235,-0.222 0.221,-0.216C0.208,-0.21 0.198,-0.203 0.19,-0.193C0.183,-0.183 0.179,-0.172 0.179,-0.157C0.179,-0.137 0.187,-0.121 0.202,-0.11C0.217,-0.099 0.236,-0.094 0.259,-0.094Z" style="fill:white;fill-rule:nonzero;stroke:white;stroke-width:0.01px;"/>
            </g>
            <g transform="matrix(96,0,0,96,1072.73,225)">
                <path d="M0.351,-0.545L0.351,-0.432L0.022,-0.432L0.022,-0.545L0.351,-0.545ZM0.097,-0.676L0.248,-0.676L0.248,-0.168C0.248,-0.154 0.25,-0.143 0.254,-0.135C0.259,-0.127 0.265,-0.122 0.272,-0.119C0.28,-0.116 0.289,-0.114 0.299,-0.114C0.306,-0.114 0.313,-0.115 0.32,-0.116C0.328,-0.118 0.333,-0.119 0.337,-0.119L0.361,-0.007C0.353,-0.004 0.342,-0.001 0.329,0.002C0.315,0.005 0.298,0.007 0.278,0.008C0.242,0.009 0.21,0.004 0.183,-0.007C0.155,-0.018 0.134,-0.035 0.119,-0.059C0.104,-0.082 0.096,-0.112 0.097,-0.148L0.097,-0.676Z" style="fill:white;fill-rule:nonzero;stroke:white;stroke-width:0.01px;"/>
            </g>
            <g transform="matrix(96,0,0,96,1109.47,225)">
                <path d="M0.309,0.011C0.253,0.011 0.205,-0.001 0.164,-0.024C0.124,-0.046 0.093,-0.079 0.071,-0.121C0.049,-0.163 0.038,-0.213 0.038,-0.27C0.038,-0.326 0.049,-0.376 0.071,-0.418C0.093,-0.46 0.124,-0.493 0.163,-0.517C0.203,-0.541 0.249,-0.553 0.303,-0.553C0.339,-0.553 0.373,-0.547 0.404,-0.535C0.435,-0.524 0.462,-0.507 0.485,-0.484C0.509,-0.461 0.527,-0.432 0.54,-0.397C0.553,-0.362 0.559,-0.322 0.559,-0.276L0.559,-0.234L0.099,-0.234L0.099,-0.328L0.417,-0.328C0.417,-0.35 0.412,-0.369 0.403,-0.386C0.393,-0.402 0.38,-0.416 0.363,-0.425C0.347,-0.435 0.327,-0.44 0.305,-0.44C0.283,-0.44 0.262,-0.434 0.245,-0.424C0.227,-0.413 0.213,-0.399 0.203,-0.381C0.193,-0.364 0.188,-0.344 0.188,-0.323L0.188,-0.234C0.188,-0.207 0.193,-0.183 0.203,-0.164C0.213,-0.144 0.227,-0.129 0.246,-0.118C0.264,-0.108 0.286,-0.102 0.311,-0.102C0.328,-0.102 0.344,-0.105 0.358,-0.109C0.371,-0.114 0.383,-0.121 0.393,-0.131C0.404,-0.14 0.411,-0.152 0.416,-0.165L0.556,-0.156C0.549,-0.123 0.534,-0.093 0.513,-0.068C0.491,-0.043 0.463,-0.024 0.428,-0.01C0.394,0.004 0.354,0.011 0.309,0.011Z" style="fill:white;fill-rule:nonzero;stroke:white;stroke-width:0.01px;"/>
            </g>
        </g>
    </g>
</svg>
